<?xml version="1.0" standalone="no"?>
<!DOCTYPE svg PUBLIC "-//W3C//DTD SVG 20010904//EN"
 "http://www.w3.org/TR/2001/REC-SVG-20010904/DTD/svg10.dtd">
<svg version="1.0" xmlns="http://www.w3.org/2000/svg"
 width="325.000000pt" height="325.000000pt" viewBox="0 0 325.000000 325.000000"
 preserveAspectRatio="xMidYMid meet">
<metadata>
Created by potrace 1.15, written by Peter Selinger 2001-2017
</metadata>
<g transform="translate(0.000000,325.000000) scale(0.100000,-0.100000)"
fill="#000000" stroke="none">
<path d="M265 2843 c-44 -23 -65 -44 -86 -85 -18 -36 -19 -77 -19 -1091 l0
-1054 26 -39 c27 -39 48 -58 93 -81 18 -10 307 -13 1348 -13 1294 0 1325 0
1362 20 49 25 88 70 101 120 7 26 9 377 8 1072 l-3 1033 -23 41 c-13 22 -42
53 -65 67 l-41 27 -1336 0 c-1199 -1 -1338 -2 -1365 -17z m1052 -855 c172
-172 313 -317 313 -323 0 -6 -144 -154 -320 -330 l-320 -320 -75 75 c-41 41
-75 79 -75 85 0 6 106 116 235 245 129 129 235 240 235 246 0 5 -106 115 -235
243 -129 128 -235 237 -235 242 0 13 140 149 153 149 7 0 153 -141 324 -312z"/>
</g>
</svg>
